<?xml version="1.0" encoding="UTF-8"?>
<svg xmlns="http://www.w3.org/2000/svg" viewBox="0 0 200 120" width="800" height="480">
  <!-- 简单的云朵轮廓，透明背景，适合作为词云遮罩 -->
  <defs>
    <style><![CDATA[
      .cloud { fill: black; }
    ]]></style>
  </defs>
  <rect width="100%" height="100%" fill="transparent"/>
  <g transform="translate(0,10)">
    <path class="cloud" d="M54.6,32.2c0-8.6,7-15.6,15.6-15.6c3.6,0,6.9,1.2,9.6,3.3c2.6-6.8,9-11.6,16.9-11.6c9.8,0,17.8,8,17.8,17.8
      c0,0.9-0.1,1.9-0.2,2.8C137.6,28.5,146,36.9,146,47c0,12-9.7,21.7-21.7,21.7H63.1C51.1,68.7,41.4,59,41.4,47
      C41.4,38.3,47.8,31.1,54.6,32.2z"/>
  </g>
</svg>
